<?xml version="1.0" standalone="no"?>
<!DOCTYPE svg PUBLIC "-//W3C//DTD SVG 20010904//EN"
 "http://www.w3.org/TR/2001/REC-SVG-20010904/DTD/svg10.dtd">
<svg version="1.0" xmlns="http://www.w3.org/2000/svg"
 width="500.000000pt" height="500.000000pt" viewBox="0 0 500.000000 500.000000"
 preserveAspectRatio="xMidYMid meet">
<metadata>
Created by potrace 1.16, written by Peter Selinger 2001-2019
</metadata>
<g transform="translate(0.000000,500.000000) scale(0.100000,-0.100000)"
fill="#de2588" stroke="none">
<path d="M2290 3993 c-128 -21 -222 -107 -310 -281 -48 -97 -109 -276 -140
-417 -19 -85 -27 -104 -54 -128 -69 -62 -58 -60 -237 -43 -190 19 -292 20
-409 6 -180 -22 -314 -75 -400 -158 -56 -54 -61 -76 -34 -155 25 -75 47 -82
239 -81 89 1 200 8 250 16 50 9 92 14 94 12 1 -1 -30 -36 -71 -76 -86 -85
-113 -134 -103 -185 5 -29 13 -38 51 -55 25 -10 60 -22 78 -25 74 -12 179 66
305 227 66 84 66 84 71 -220 5 -305 5 -305 163 -578 88 -150 164 -286 170
-302 29 -77 32 -25 29 550 -1 319 1 580 5 580 5 0 148 -241 318 -537 309 -534
346 -590 413 -620 20 -9 144 -12 455 -13 379 0 428 2 425 15 -2 9 -63 92 -137
186 -134 170 -134 170 -265 167 -105 -2 -131 -6 -131 -17 0 -12 23 -14 125
-13 125 2 125 2 248 -153 122 -156 122 -156 -292 -153 -403 3 -415 4 -443 24
-15 11 -38 36 -50 54 -23 32 -23 38 -23 350 0 317 0 317 -230 715 -126 218
-230 401 -230 406 0 4 33 18 73 29 277 80 397 147 397 221 0 45 -15 65 -75
104 -59 37 -100 44 -164 25 -19 -5 -37 -8 -39 -6 -2 3 23 48 57 101 72 116
102 190 109 267 4 54 3 59 -32 100 -21 24 -47 48 -59 55 -21 12 -95 15 -147 6z
m48 -113 c43 -27 42 -49 -13 -156 -66 -133 -354 -504 -391 -504 -19 0 -18 5
11 120 76 298 179 487 298 540 52 24 55 24 95 0z m157 -517 c19 -9 34 -22 32
-27 -7 -20 -82 -55 -202 -94 -159 -52 -175 -55 -175 -39 0 27 78 87 169 131
104 51 124 54 176 29z m-280 -719 c132 -229 239 -419 238 -422 -1 -4 -5 -8
-10 -9 -7 -3 -493 826 -493 841 0 38 62 -59 265 -410z m-665 387 c118 -11 87
-24 -203 -86 -240 -51 -477 -72 -517 -45 -34 23 73 84 210 120 100 27 302 31
510 11z m278 -477 c-2 -260 -6 -398 -13 -397 -11 3 -20 776 -10 802 4 9 9 11
15 5 7 -7 9 -159 8 -410z m-278 257 c0 -19 -121 -170 -183 -228 -75 -70 -100
-80 -128 -52 -15 15 -17 24 -9 39 13 24 113 113 215 189 77 58 105 72 105 52z"/>
<path d="M2736 3275 c-43 -15 -91 -57 -112 -97 -11 -22 -14 -88 -14 -328 0
-260 2 -300 15 -300 13 0 15 40 15 299 0 293 0 299 23 331 36 54 69 72 126 72
61 0 107 -24 136 -72 19 -34 20 -52 23 -613 2 -447 6 -577 15 -574 17 5 22
1100 6 1160 -14 52 -72 111 -124 126 -50 14 -61 13 -109 -4z"/>
<path d="M2786 3111 c-12 -19 -7 -1413 5 -1428 9 -10 65 -13 255 -13 239 0
244 0 244 20 0 21 -4 21 -237 19 -238 -1 -238 -1 -241 697 -1 385 -6 702 -11
707 -5 5 -12 4 -15 -2z"/>
</g>
</svg>
